<svg width="512" height="512" viewBox="0 0 512 512" fill="none" xmlns="http://www.w3.org/2000/svg">
<g clip-path="url(#clip0_8_12)">
<path d="M343.599 243.02C338.473 232.871 328.514 227.952 317.55 230.12C313.782 230.865 310.067 231.883 305.592 232.952C307.478 226.189 307.467 219.407 312.034 214.068C314.04 211.724 316.791 210.723 319.695 209.966C325.714 208.397 331.936 208.626 338.033 207.767C338.566 207.692 339.159 207.778 339.62 207.14C339.903 205.815 338.905 204.851 338.303 203.764C332.049 192.468 326.37 180.933 322.672 168.49C316.916 149.115 320.13 130.654 327.944 112.575C335.789 94.4265 346.99 78.7617 362.316 66.1943C374.178 56.4664 387.992 51.776 403.203 50.7248C418.66 49.6565 433.094 53.7209 447.362 58.9748C463.431 64.8921 479.623 70.4487 496.62 73.1431C500.616 73.7765 504.655 74.144 508.717 74.1118C509.79 74.1032 510.92 73.8978 511.835 74.4888C512.307 75.478 511.657 76.0123 511.256 76.5795C499.486 93.2193 483.378 103.285 463.636 107.645C457.104 109.087 450.44 108.337 443.838 107.762C439.079 107.348 434.331 106.819 429.573 106.399C428.697 106.322 427.726 106.104 426.586 107.123C430.311 115.061 434.961 122.791 437.123 131.955C434.835 131.245 433.472 129.858 431.927 128.81C421.883 121.994 411.397 115.931 399.41 113.446C380.372 109.501 365.938 113.755 354.351 130.534C348.056 139.65 342.88 149.451 340.495 160.419C338.599 169.141 340.362 177.509 343.238 185.607C344.06 185.695 344.28 185.378 344.419 185.047C347.706 177.205 353.388 171.208 359.395 165.434C363.113 161.862 366.731 158.184 370.309 154.471C371.556 153.176 372.491 153.003 373.62 154.52C374.443 155.626 375.34 156.688 376.294 157.684C383.665 165.374 382.673 173.145 376.635 181.008C374.285 184.067 371.713 186.99 368.978 189.709C366.043 192.627 365.613 195.86 366.332 199.748C367.649 206.872 369.429 213.959 368.927 221.318C368.736 224.109 367.947 226.76 367.129 229.378C363.339 241.504 360.84 253.973 357.254 266.149C353.818 277.816 349.036 288.73 340.617 297.886C332.855 306.327 323.132 310.119 312.117 311.408C309.56 311.707 306.978 311.986 304.413 311.941C302.231 311.902 301.095 312.62 300.406 314.746C298.703 319.996 296.915 325.228 294.075 330.019C287.17 341.663 277.089 347.53 263.43 346.921C258.377 346.696 253.324 346.466 248.27 346.262C247.369 346.226 246.429 346.008 245.449 346.628C245.311 348.999 246.648 350.954 247.672 352.937C252.539 362.365 259.972 369.641 267.812 376.544C271.524 379.812 275.315 382.989 279.017 386.161C278.471 387.572 277.358 387.704 276.502 388.133C263.496 394.655 250.365 400.952 238.061 408.77C227.143 415.707 216.606 423.21 208.763 433.687C203.416 440.829 198.702 448.443 193.655 455.811C190.073 461.039 190.018 461.027 185.983 456.153C183.695 453.389 181.343 450.692 178.476 448.1C175.764 449.994 173.978 452.711 171.926 455.098C167.185 460.612 162.674 466.312 157.476 471.435C155.875 473.013 154.529 473.417 152.662 472.327C152.583 472.282 152.486 472.269 152.405 472.225C148.198 469.941 144.12 469.318 140.332 473.09C139.956 473.464 139.395 473.67 138.893 473.893C138.661 473.997 138.364 473.955 137.83 474.003C136.555 469.615 135.021 465.186 135.256 460.62C135.458 456.685 138.374 453.641 140.4 450.374C141.693 448.29 143.176 446.325 144.817 443.956C140.225 444.026 136.318 445.027 132.458 446.084C129.957 446.769 128.387 446.291 127.524 443.777C127.258 443.002 126.763 442.307 126.386 441.569C122.565 434.089 124.916 426.432 132.257 422.266C136.355 419.941 141.047 418.907 145.025 416.354C146.427 415.454 148.987 414.789 148.33 412.878C147.668 410.951 145.448 412.576 143.91 412.553C142.389 412.529 140.927 413.68 139.028 412.628C140.276 405.923 141.857 399.334 148.043 395.191C151.551 392.842 155.435 392.447 159.262 394.719C163.852 397.445 168.435 400.183 172.99 402.968C180.055 407.287 187.344 408.394 195.433 405.801C206.5 402.252 217.031 397.901 225.835 390.055C227.435 388.629 228.757 386.984 230.09 385.354C231.722 383.359 230.248 379.108 227.642 378.025C221.414 375.439 214.791 374.15 208.363 372.217C203.336 370.706 198.319 369.184 193.551 366.956C186.281 363.559 180.341 358.446 175.832 351.927C167.759 340.255 168.932 323.086 178.321 311.781C187.491 300.74 199.53 297.09 213.412 298.704C217.601 299.191 221.727 300.212 225.891 300.936C227.002 301.129 228.373 301.867 229.14 300.493C229.777 299.353 228.813 298.413 228.152 297.542C224.514 292.755 219.819 289.256 214.55 286.472C208.259 283.148 201.519 280.916 194.901 278.378C187.055 275.369 179.391 272.008 173.154 266.115C166.747 260.061 167.077 253.057 174.133 247.626C181.341 242.077 189.83 240.175 198.624 239.261C207.957 238.291 217.368 238.418 226.693 237.235C234.837 236.203 242.374 233.344 249.785 230.021C250.947 229.5 252.034 228.733 253.776 228.769C255.115 232.52 256.483 236.391 257.878 240.252C263.042 254.548 269.439 268.176 279.737 279.602C284.764 285.179 290.506 289.957 297.22 293.386C309.093 299.45 317.642 298.363 327.629 289.508C337.248 280.978 342.597 270.089 344.782 257.536C345.629 252.669 345.948 247.841 343.599 243.02Z" fill="#657672"/>
<path d="M243.645 214.946C241.577 215.112 241.741 216.627 241.713 217.84C241.644 220.786 241.754 223.736 241.73 226.683C241.722 227.656 242.045 228.708 241.31 229.598C240.103 229.931 239.424 228.992 238.631 228.458C233.283 224.859 227.94 221.251 222.652 217.565C221.136 216.508 219.944 216.597 218.42 217.616C212.989 221.248 207.717 225.107 202.059 228.416C192.362 234.086 181.84 236.646 170.767 237.375C166.719 237.641 162.722 238.299 158.782 239.175C155.749 239.849 153.976 242.429 151.965 244.575C150.112 246.553 148.782 249.02 146.639 250.674C145.516 250.057 145.571 249.122 145.508 248.366C144.059 230.955 144.061 213.691 148.652 196.576C153.473 178.603 164.224 165.373 179.457 155.297C188.237 149.49 197.624 144.782 206.901 139.872C212.438 136.941 217.9 133.885 223.341 130.781C238.963 121.87 247.401 107.97 251.369 90.896C252.746 84.9697 253.72 78.9947 253.84 72.8923C253.862 71.749 253.809 70.5132 254.532 69.508C255.452 69.3862 255.684 70.1089 256.011 70.6074C264.922 84.202 271.526 98.7695 275.042 114.719C278.97 132.539 277.395 149.755 270.476 166.639C267.203 174.629 264.501 182.84 263.173 191.466C262.012 199.004 262.927 206.106 266.327 212.917C267.879 216.024 269.374 219.16 271.251 223.016C261.309 221.326 252.608 218.039 243.645 214.946Z" fill="#657672"/>
<path d="M124.639 357.443C115.013 360.684 106.359 365.436 97.4729 371.025C98.3318 367.823 99.1433 365.316 99.6649 362.75C100.982 356.27 96.6968 349.893 90.2182 348.626C87.5403 348.102 85.3716 349.316 83.4435 351.019C80.7314 353.414 78.5127 356.281 76.4943 359.224C73.0855 364.195 68.1883 366.267 62.5853 367.276C61.318 367.504 59.9939 367.567 58.7928 367.985C55.1455 369.254 52.24 368.492 49.338 365.819C47.3389 363.977 46.648 362.125 46.1241 359.54C45.0142 354.061 46.9308 349.656 49.6605 345.283C50.2233 344.381 50.9555 343.491 50.9119 341.99C44.8978 343.291 39.2421 345.046 35.3631 350.082C34.0429 351.796 33.1511 351.881 31.6818 350.469C29.3573 348.236 26.9665 346.097 25.24 343.309C19.1533 333.482 24.6671 321.698 36.0775 319.889C41.6749 319.002 47.0665 320.139 52.5259 320.805C53.4294 320.916 54.3142 321.196 55.2377 320.874C55.4411 319.569 54.3978 319.044 53.767 318.341C49.2138 313.273 44.6563 308.207 40.0187 303.215C38.8078 301.912 38.7709 300.771 39.5281 299.255C45.4933 287.31 61.9812 283.92 72.1219 292.596C75.3264 295.338 76.9743 298.994 78.1869 302.921C79.9513 308.634 80.7108 314.583 82.4341 320.322C83.7427 324.679 86.2947 327.615 90.3529 329.256C97.5685 332.174 104.891 334.663 112.859 332.615C113.925 332.341 114.978 331.982 115.996 331.563C122.453 328.901 123.65 326.571 122.886 319.66C122.19 313.36 120.95 307.106 120.93 300.746C120.88 285.606 135.139 272.717 150.197 273.961C157.06 274.528 162.957 277.361 168.602 280.888C173.808 284.142 178.674 287.894 183.893 292.026C181.231 293.838 178.909 295.415 176.592 296.998C169.963 301.528 164.284 307.001 160.46 314.124C154.602 325.036 154.302 336.444 157.883 348.108C158.423 349.866 158.999 351.613 159.534 353.372C159.609 353.618 159.544 353.906 159.544 354.724C147.722 352.646 136.16 353.658 124.639 357.443Z" fill="#657672"/>
<path d="M82.6644 110.358C93.4632 127.37 108.905 138.496 126.598 146.893C135.278 151.012 144.375 153.954 153.679 156.286C154.476 156.486 155.33 156.539 155.857 157.488C155.761 157.749 155.705 158.129 155.506 158.409C150.116 166.007 145.427 174.031 141.037 182.234C140.374 183.474 139.514 183.849 138.163 183.835C130.703 183.756 123.241 183.705 115.781 183.763C113.842 183.778 112.797 183.022 112.558 181.184C111.821 175.52 108.403 172.485 103.192 170.568C97.5022 168.476 92.0244 165.806 86.7815 162.688C81.4876 159.54 78.8462 154.388 76.2137 149.199C75.6727 148.132 75.1287 147.057 74.7159 145.938C71.6943 137.744 65.6734 133.043 57.4496 130.664C53.0445 129.389 52.7936 129.167 53.2079 124.754C54.0607 115.67 48.9926 110.016 42.331 105.356C36.1933 101.062 29.0658 99.0865 21.8176 97.5587C20.1106 97.199 18.4257 96.7314 16.7141 96.3984C15.5116 96.1645 14.6627 95.5104 14.2281 94.4329C12.3477 89.7713 9.09948 86.7165 4.13419 85.5716C3.62654 85.4546 3.08242 85.183 2.81764 84.1716C9.27189 79.1432 16.8796 75.6862 23.9634 71.4093C23.2493 69.9212 22.0267 69.5735 21.016 69.0219C14.2869 65.3492 10.1373 59.5444 7.27562 52.6358C6.56331 50.9161 6.78939 49.8365 8.66091 48.9095C13.1885 46.6668 17.4497 43.881 22.522 42.8567C28.1196 41.7263 34.0886 44.2489 37.0159 49.1142C38.7922 52.0666 39.975 55.315 40.6421 58.6224C41.5411 63.0797 44.4861 65.2487 48.7156 67.0772C49.7332 58.0585 52.9201 49.9927 58.3199 42.2469C63.3199 46.4101 69.1555 49.2834 72.2333 55.1347C74.7799 59.9763 73.4803 65.2476 73.343 70.3553C73.0521 81.1734 73.1522 91.9307 78.0571 101.954C79.4307 104.761 81.0485 107.448 82.6644 110.358Z" fill="#657672"/>
<path d="M226.975 109.87C218.436 115.862 208.841 118.235 198.922 119.63C186.243 121.414 173.414 121.168 160.691 122.395C155.129 122.932 155.113 122.821 153.33 117.332C153.051 116.473 152.84 115.592 152.535 114.497C155.33 113.487 158.121 113.758 160.802 113.415C163.717 113.043 166.637 112.774 169.53 112.2C176.416 110.834 181.121 107.002 183.62 100.384C186.744 92.1069 187.494 83.8916 182.968 75.8951C179.335 69.4769 172.509 66.5006 165.18 67.3799C158.356 68.1985 151.962 70.5527 145.4 72.3199C144.2 72.6431 143.001 73.3018 141.322 72.5204C143.943 65.9584 145.695 59.1814 153.647 56.4178C166.594 51.9183 179.4 47.0018 192.19 42.0686C199.934 39.082 207.399 40.6833 214.899 42.7881C218.442 43.7825 221.983 44.7446 225.601 45.4601C230.053 46.3405 234.165 45.8169 238.018 43.3288C241.24 41.2477 244.521 39.2589 248.14 37.0025C249.454 42.0481 250.673 46.7088 250.56 51.5976C250.545 52.2466 249.974 52.9269 249.552 53.5146C247.672 56.1303 245.978 58.9272 243.799 61.2699C239.71 65.6663 239.604 70.7773 240.325 76.2166C241 81.3186 241.653 86.4378 240.964 91.5993C239.932 99.3367 234.238 103.775 228.944 108.483C228.397 108.969 227.742 109.332 226.975 109.87Z" fill="#657672"/>
<path d="M121.085 206.185C125.603 205.608 129.564 203.769 133.757 202.76C134.735 204.391 134.026 205.863 133.928 207.249C133.273 216.446 133.114 225.641 133.847 234.833C134.053 237.409 133.207 238.343 130.547 238.582C121.479 239.397 112.808 237.442 104.174 235.199C99.1924 233.906 94.219 232.51 89.3693 230.799C83.8161 228.84 78.6832 229.694 73.6733 232.307C69.2686 234.605 64.9363 237.042 60.5328 239.343C57.5999 240.875 57.2524 240.641 56.7327 237.318C56.3779 235.048 56.1627 232.74 55.5943 230.524C54.3705 225.753 51.3807 224.174 46.6595 225.609C44.7045 226.203 42.7038 226.949 41.2906 228.358C36.6535 232.981 30.955 234.703 24.6441 235.132C22.6355 235.269 20.6206 235.615 18.6601 236.081C16.2542 236.653 15.141 235.615 14.9362 233.389C14.5897 229.623 14.4952 225.852 15.5377 222.156C16.7603 217.822 17.9493 213.476 19.2709 209.172C19.7577 207.587 19.3068 206.834 17.8274 206.235C13.2286 204.372 8.41118 203.822 3.52106 203.65C-0.118492 203.521 -0.32767 203.321 0.232776 199.803C0.608319 197.445 1.07162 195.102 1.46684 192.748C2.06873 189.162 4.21711 186.876 7.40861 185.327C10.4914 183.829 13.7284 182.778 16.9979 181.846C19.1838 181.223 19.4185 180.178 18.6286 178.202C16.8533 173.762 15.2713 169.245 13.6283 164.752C13.2856 163.815 12.8118 162.885 13.1126 161.832C24.755 158.818 32.5479 158.729 40.0374 166.914C43.5496 170.752 45.8248 175.462 47.794 180.221C51.493 189.161 57.7287 195.232 66.7896 198.682C71.9498 200.647 77.0216 202.892 82.377 204.223C95.0535 207.373 107.845 209.131 121.085 206.185Z" fill="#657672"/>
<path d="M173.503 101.106C158.902 102.733 144.67 105.876 130.049 106.027C121.592 106.114 114.034 104.324 107.362 99.0877C105.144 97.347 102.919 95.6159 100.577 93.7869C102.208 92.137 104.009 92.7621 105.532 92.5438C115.368 91.1349 124.983 88.5737 134.788 87.0367C139.504 86.2975 144.245 85.4781 148.999 85.2879C153.682 85.1004 158.029 86.7869 161.933 89.4402C165.993 92.1993 169.461 95.6328 172.877 99.1198C173.367 99.6196 174.07 100.086 173.503 101.106Z" fill="#657672"/>
</g>
<defs>
<clipPath id="clip0_8_12">
<rect width="512" height="437" fill="white" transform="translate(0 37)"/>
</clipPath>
</defs>
</svg>
